<svg width="100" height="100" viewBox="0 0 100 100" fill="none" xmlns="http://www.w3.org/2000/svg">
<path d="M29.0677 99C18.7747 99 10.4018 90.6153 10.4018 80.3079V56.5271C4.95941 50.8312 2 43.4007 2 35.2328C2 16.6852 16.9991 1 34.741 1C40.1401 1 45.3227 2.28662 50 4.74421C54.6484 2.28662 59.8454 1 65.2445 1C83.0009 1 98 16.6707 98 35.2328C98 43.4007 95.0406 50.8457 89.5982 56.5271V80.3079C89.5982 90.6153 81.2253 99 70.9179 99H29.0821H29.0677Z" fill="white" stroke="#B9B9B9" stroke-miterlimit="10"/>
<path d="M29.0671 90.3264C23.5526 90.3264 19.0629 85.8305 19.0629 80.3081V52.7109L18.5432 52.2772C13.4617 48.0414 10.6611 41.9842 10.6611 35.2186C10.6611 21.6007 21.9068 9.65967 34.7405 9.65967C39.9808 9.65967 44.9613 11.3077 49.1333 14.4303L49.9995 15.0808L50.8657 14.4303C55.0088 11.3222 59.9748 9.67412 65.2295 9.67412C78.0632 9.67412 89.3234 21.6151 89.3234 35.2331C89.3234 41.9987 86.5228 48.0559 81.4413 52.2916L80.9216 52.7253V80.3226C80.9216 85.8449 76.432 90.3409 70.903 90.3409H29.0671V90.3264Z" fill="#FFF1E7"/>
<path d="M65.2298 11.1198C77.2984 11.1198 87.88 22.3813 87.88 35.2331C87.88 41.565 85.2671 47.2174 80.5176 51.1785L79.4782 52.0459V80.3226C79.4782 85.0499 75.6382 88.8953 70.9032 88.8953H29.0674C24.3468 88.8953 20.5068 85.0499 20.5068 80.3226V52.0459L19.4674 51.1785C14.7179 47.2174 12.105 41.565 12.105 35.2331C12.105 22.3958 22.6866 11.1198 34.7408 11.1198C39.6779 11.1198 44.3552 12.6666 48.2818 15.6013L50.0142 16.8879L51.7465 15.5868C55.6442 12.6666 60.3071 11.1198 65.2442 11.1198M65.2298 8.22852C59.5131 8.22852 54.2295 10.0934 49.9997 13.2738C45.7411 10.0934 40.4575 8.22852 34.7408 8.22852C20.6511 8.22852 9.21777 21.0947 9.21777 35.2331C9.21777 42.7504 12.4659 49.1112 17.6196 53.4048V80.3226C17.6196 86.6401 22.73 91.7866 29.0674 91.7866H70.9032C77.2262 91.7866 82.3654 86.6545 82.3654 80.3226V53.4048C87.5191 49.1112 90.7672 42.7649 90.7672 35.2331C90.7672 21.1092 79.3338 8.22852 65.2298 8.22852Z" fill="#F9C38D"/>
<path d="M44.9331 29.1179C41.0931 31.084 40.5012 36.4762 37.2964 39.3675C35.1887 41.2613 32.1283 41.8974 30.165 43.9646C27.9274 46.321 27.7108 50.0797 28.8657 53.1155C30.0206 56.1514 32.3304 58.5945 34.7123 60.7919C37.0943 62.9893 39.6639 65.0565 41.555 67.6876C43.2874 70.0729 44.5289 72.9786 47.0119 74.5399C49.4227 76.0578 52.4543 75.9856 55.2838 75.8555C57.5214 75.7543 59.7878 75.6675 61.9532 75.0748C64.1186 74.4821 66.2119 73.3545 67.54 71.5474C70.4416 67.6153 68.9836 61.9628 70.6726 57.3802C71.611 54.8069 73.5021 52.6818 74.5415 50.152C76.4904 45.3813 74.8591 39.3819 70.7448 36.2738C68.4639 34.539 65.6344 33.7006 62.8771 32.9055C59.8167 32.0092 56.7707 31.2285 53.869 29.9419C51.1406 28.742 47.777 27.6722 44.9331 29.1179Z" fill="white"/>
<path d="M74.5418 50.1523C73.5168 52.6967 71.6113 54.8218 70.6729 57.395C68.9839 61.9921 70.4564 67.6157 67.5403 71.5623C66.2121 73.3693 64.1189 74.4969 61.9535 75.0896C59.7881 75.6824 57.5216 75.7836 55.2984 75.8703C52.4545 76.0004 49.423 76.0582 47.0266 74.5548C45.684 73.7163 44.7024 72.473 43.8218 71.1575C44.4714 71.996 45.2221 72.7477 46.1316 73.3115C48.528 74.8294 51.5739 74.7427 54.4034 74.627C56.6554 74.5403 58.9075 74.4391 61.0729 73.8464C63.2239 73.2681 65.3171 72.1261 66.6597 70.3335C69.5613 66.4013 68.0889 60.7489 69.7779 56.1518C70.7307 53.5785 72.6218 51.4534 73.6612 48.9236C75.0759 45.4251 74.5995 41.2906 72.6218 38.0957C75.3213 41.4062 76.1731 46.2202 74.5562 50.1668L74.5418 50.1523Z" fill="#D0D0D0"/>
<path d="M43.7485 71.0845C42.8535 69.9425 42.1317 68.6558 41.3232 67.4126C41.4099 67.4993 41.482 67.615 41.5542 67.7162C42.3338 68.8004 43.0267 69.9858 43.7485 71.0845Z" fill="#EDEDED"/>
<path d="M57.5209 57.799C62.767 57.799 67.0199 53.5402 67.0199 48.2867C67.0199 43.0332 62.767 38.7744 57.5209 38.7744C52.2748 38.7744 48.022 43.0332 48.022 48.2867C48.022 53.5402 52.2748 57.799 57.5209 57.799Z" fill="#FFF261"/>
<path d="M67.0199 48.3013C67.0199 53.549 62.7612 57.8137 57.5209 57.8137C54.3306 57.8137 51.5011 56.2379 49.7832 53.8092C51.4434 55.2404 53.6087 56.1223 55.9907 56.1223C61.231 56.1223 65.4897 51.8576 65.4897 46.6099C65.4897 44.5571 64.8401 42.6633 63.7285 41.1021C65.7495 42.8657 67.0199 45.439 67.0199 48.3013Z" fill="#F5E25C"/>
</svg>
