<svg width="100" height="100" viewBox="0 0 100 100" fill="none" xmlns="http://www.w3.org/2000/svg">
<path d="M45.2141 98C40.8354 98 36.5235 97.1354 32.3851 95.4336L31.5174 95.0768C28.3402 93.773 26.0306 90.8087 25.3632 87.1582L22.2527 69.6603C10.2914 67.986 1 56.7324 1 43.1321C1 36.2291 3.41632 29.6828 7.70157 24.7422C9.17003 11.4164 19.5961 1 32.1048 1C36.2031 1 40.2214 2.13908 43.7857 4.25255C45.4011 3.68987 47.1098 3.38795 48.8452 3.38795C51.3416 3.38795 53.7446 3.97807 55.9339 5.11715C56.9352 4.97991 57.9498 4.91129 58.9643 4.91129C70.7521 4.91129 80.6175 13.8592 83.0204 26.1969C85.7037 28.5986 87.7863 31.7139 89.0278 35.2409C95.182 39.015 99 45.8083 99 53.3701C99 60.9319 94.8883 68.1781 88.4271 71.8424C86.0775 79.2533 79.2558 84.5918 71.3795 84.5918C69.4171 84.5918 67.5215 84.2624 65.7193 83.6449L64.8782 87.5562C64.1707 90.9048 61.9947 93.7044 59.0578 95.0082C54.6123 96.9844 49.9533 98 45.2008 98H45.2141Z" fill="white" stroke="#B9B9B9" stroke-miterlimit="10"/>
<path d="M64.6772 56.5679L58.3762 86.0878C58.1226 87.2955 57.3883 88.2836 56.4272 88.7091C49.472 91.8107 41.876 91.9479 34.8674 89.0659L33.9997 88.7091C32.9584 88.2836 32.1708 87.2132 31.9438 85.8957L26.7241 56.5679H34.7606L37.4706 69.0428L37.8177 56.5679H52.3822L51.728 74.2853L57.108 56.5679H64.7039H64.6772Z" fill="#E0FED0"/>
<path d="M83.7144 43.1457C83.7144 51.4349 77.7605 58.1321 70.3914 58.1321C66.0127 58.1321 62.1146 55.7579 59.6983 52.0799C59.458 52.1074 59.2177 52.1074 58.9774 52.1074C57.9495 52.1074 56.9483 52.0113 55.9738 51.8329C54.9992 58.187 50.0866 63.0178 44.1593 63.0178C40.8886 63.0178 37.925 61.5356 35.7757 59.1614C32.8521 61.5905 29.2477 63.0178 25.3496 63.0178C15.6044 63.0178 7.68799 54.1111 7.68799 43.1457C7.68799 36.9426 10.2378 31.3981 14.216 27.7613C14.3361 16.7548 22.3059 7.87549 32.1179 7.87549C36.3364 7.87549 40.2211 9.52235 43.2515 12.2534C44.8401 11.0045 46.7758 10.2634 48.8584 10.2634C50.9409 10.2634 53.0235 11.0457 54.6388 12.3769C56.0272 11.9926 57.4689 11.7731 58.9774 11.7731C68.2955 11.7731 75.9583 19.7878 76.826 29.9983C80.9377 32.5646 83.7144 37.4915 83.7144 43.132V43.1457Z" fill="#9AE574"/>
<path d="M60.9129 27.6236C62.9154 31.5074 62.2212 36.2696 59.1908 39.3712L58.8438 39.728C60.0052 35.8853 60.6993 31.9191 60.8996 27.8981V27.6099L60.9129 27.6236Z" fill="#90C671"/>
<path d="M30.1819 37.478C27.592 42.4872 28.4998 48.6629 32.3979 52.6703L32.8518 53.1369C31.3433 48.1826 30.4489 43.0362 30.1952 37.8486V37.478H30.1819Z" fill="#90C671"/>
<path d="M92 54.6862C92 60.7938 88.1797 65.9688 82.9111 67.7157C82.5241 73.4554 77.9671 78 72.4114 78C66.8557 78 62.5609 73.705 61.9616 68.1885C55.7442 67.1509 51 61.503 51 54.6862C51 47.1338 56.8304 41 64.0091 41C66.7932 41 69.3901 41.9326 71.5 43.5087C73.6099 41.9326 76.2067 41 78.9908 41C86.1696 41 92 47.1338 92 54.6862Z" fill="#C6FCAA"/>
<path d="M49.7456 29C53.333 29 56.2539 32.0344 56.2539 35.7777C56.2539 39.521 53.3472 42.5553 49.7456 42.5553C47.6613 42.5553 45.818 41.5344 44.6269 39.9605C43.4359 41.5486 41.5784 42.5553 39.5083 42.5553C35.9209 42.5553 33 39.521 33 35.7777C33 32.0344 35.9067 29 39.5083 29C41.5926 29 43.4359 30.0209 44.6269 31.5948C45.818 30.0067 47.6755 29 49.7456 29Z" fill="white"/>
<path d="M44.7689 36.9971C44.7689 39.3083 43.1525 41.1657 41.1675 41.1657C39.1824 41.1657 37.5659 39.2941 37.5659 36.9971C37.5659 34.7 39.1824 32.8284 41.1675 32.8284C43.1525 32.8284 44.7689 34.7 44.7689 36.9971Z" fill="black"/>
<path d="M54.9071 36.9971C54.9071 39.3083 53.2907 41.1657 51.3056 41.1657C49.3205 41.1657 47.7041 39.2941 47.7041 36.9971C47.7041 34.7 49.3205 32.8284 51.3056 32.8284C53.2907 32.8284 54.9071 34.7 54.9071 36.9971Z" fill="black"/>
<path d="M44.4855 44.64C44.4855 44.64 41.8624 45.9587 39.2817 43.5482" stroke="black" stroke-miterlimit="10" stroke-linecap="round"/>
</svg>
