<svg width="100" height="100" viewBox="0 0 100 100" fill="none" xmlns="http://www.w3.org/2000/svg">
<path d="M48.5285 97.9877C31.7933 97.9877 17.1637 90.3731 8.4029 77.1C0.658516 65.5736 -1.08397 51.6361 3.52636 37.8831C8.71751 22.408 21.3747 9.70067 36.5731 4.694L36.6941 4.6571C41.8368 2.898 47.0885 2 52.328 2C67.8168 2 82.2891 9.82368 91.0379 22.9247C99.7503 35.9518 101.396 52.0051 95.5635 66.9882C88.3878 85.8093 69.9344 98 48.5527 98L48.5285 97.9877Z" fill="white" stroke="#B9B9B9" stroke-miterlimit="10"/>
<path d="M48.5285 91.8371C33.8384 91.8371 21.0481 85.2189 13.4247 73.668C6.75729 63.753 5.26892 51.7469 9.25001 39.8638C13.8361 26.1969 25.0171 14.9658 38.4245 10.5496L38.6182 10.488C43.1196 8.95037 47.7299 8.16309 52.3039 8.16309C65.784 8.16309 78.3807 14.9781 86.0162 26.3937C93.5791 37.711 95.0069 51.6854 89.9126 64.7371C83.6324 81.2087 67.3934 91.8617 48.5285 91.8617V91.8371Z" fill="#90C671"/>
<path d="M39.1748 12.8867C15.6029 20.6488 0.537648 50.1475 15.4335 72.3023C32.8946 98.7503 76.4084 93.3746 87.674 63.8144C99.8714 32.5074 70.709 2.07374 39.3927 12.8128L39.1748 12.8867Z" fill="#F6FCD2"/>
<path d="M52.6306 14.3258C64.102 14.4365 74.7747 20.3411 81.2001 30.1207C87.5287 39.7773 88.6178 51.6851 84.1769 62.7932C78.6832 76.8414 64.5618 85.8214 48.2139 85.6738C35.5809 85.5508 24.6661 79.8306 18.2528 69.928C12.7471 61.5877 11.6096 51.5005 15.0583 41.5364C19.1483 29.7025 28.9377 20.0459 40.6389 16.3063L40.8688 16.2325C44.7652 14.9408 48.7221 14.3012 52.6427 14.3381M52.6669 10.6353C48.4801 10.5984 44.1239 11.2504 39.7314 12.7143L39.5136 12.7881C15.869 20.3288 0.53756 49.6922 15.2398 71.97C22.7906 83.6441 35.4236 89.2412 48.1776 89.3519C64.5134 89.4995 81.0791 80.6917 87.5408 64.1464C98.2741 37.3294 78.4049 10.8568 52.6548 10.623L52.6669 10.6353Z" fill="#D4E683"/>
<path d="M59.2496 60.6037C60.024 61.0342 60.9195 61.391 61.7786 61.1819C63.0734 60.862 63.7268 59.3982 64.114 58.1065C64.586 56.5442 64.9369 54.9451 65.1789 53.3336C65.312 52.4602 65.3725 51.4515 64.7796 50.7995C64.1382 50.086 63.0371 50.1229 62.0811 50.2213C59.8062 50.4551 57.4587 50.7134 55.45 51.8328C54.7724 52.2142 53.4292 52.9522 53.1751 53.7518C52.8847 54.6621 53.8043 55.6462 54.3126 56.3351C55.6436 58.0942 57.3256 59.5704 59.2496 60.616V60.6037Z" fill="#D4E683"/>
<path d="M58.0152 52.9403C57.761 52.9772 57.4948 53.0018 57.2528 53.1248C57.0108 53.2478 56.8172 53.4569 56.7809 53.7152C56.7446 53.9736 56.8777 54.2196 57.0592 54.3918C57.2407 54.564 57.4948 54.6501 57.7368 54.7117C58.2209 54.847 58.717 54.8716 59.2252 54.9085C60.0723 54.97 61.2944 54.4164 61.0161 53.297C60.7378 52.1776 58.7412 52.8541 58.0152 52.9403Z" fill="#F6FCD2"/>
<path d="M59.0678 55.6097C58.85 55.4621 58.6321 55.3144 58.378 55.2406C58.1239 55.1668 57.8335 55.2037 57.6399 55.3759C57.4463 55.5482 57.3858 55.8188 57.4221 56.0771C57.4584 56.3355 57.5794 56.5569 57.7246 56.766C58.0029 57.1843 58.3659 57.541 58.729 57.8977C59.334 58.5005 60.6166 58.8941 61.1249 57.8608C61.6331 56.8275 59.6728 56.0156 59.0678 55.6097Z" fill="#F6FCD2"/>
<path d="M40.3601 59.0046C39.5856 59.4351 38.6902 59.7919 37.8311 59.5827C36.5363 59.2629 35.8829 57.799 35.4956 56.5074C35.0237 54.9451 34.6728 53.3459 34.4308 51.7345C34.2977 50.8611 34.2372 49.8523 34.8301 49.2004C35.4714 48.4869 36.5726 48.5238 37.5285 48.6222C39.8035 48.8559 42.151 49.1143 44.1597 50.2337C44.8373 50.615 46.1805 51.3531 46.4346 52.1527C46.725 53.063 45.8054 54.0471 45.2971 54.736C43.9661 56.4951 42.2841 57.9713 40.3601 59.0169V59.0046Z" fill="#D4E683"/>
<path d="M41.595 51.3524C41.8491 51.3893 42.1153 51.4139 42.3574 51.5369C42.5994 51.6599 42.793 51.869 42.8293 52.1274C42.8656 52.3857 42.7325 52.6317 42.551 52.8039C42.3695 52.9761 42.1153 53.0623 41.8733 53.1238C41.3893 53.2591 40.8932 53.2837 40.385 53.3206C39.5379 53.3821 38.3158 52.8285 38.5941 51.7091C38.8724 50.5897 40.869 51.2663 41.595 51.3524Z" fill="#F6FCD2"/>
<path d="M40.5422 54.0228C40.76 53.8751 40.9778 53.7275 41.2319 53.6537C41.486 53.5799 41.7765 53.6168 41.9701 53.789C42.1637 53.9612 42.2242 54.2319 42.1879 54.4902C42.1516 54.7485 42.0306 54.97 41.8854 55.1791C41.6071 55.5973 41.244 55.9541 40.881 56.3108C40.276 56.9136 38.9933 57.3072 38.4851 56.2739C37.9769 55.2406 39.9372 54.4287 40.5422 54.0228Z" fill="#F6FCD2"/>
<path d="M43.337 61.3789C42.611 62.2769 41.8486 63.2733 41.8244 64.4296C41.7881 65.9304 43.1434 67.2343 44.6076 67.4311C46.0718 67.628 47.548 66.8776 48.5645 65.7704C49.5809 64.6633 50.186 63.2487 50.6579 61.8217C51.0814 60.5301 51.4202 59.1769 51.2871 57.8238C51.1056 55.8309 49.7745 53.5798 48.0441 55.5234C46.3138 57.467 44.898 59.4352 43.3249 61.3789H43.337Z" fill="#D4E683"/>
<path d="M49.6411 58.8326C49.7137 58.5743 49.7863 58.316 49.7742 58.0576C49.7621 57.7993 49.6532 57.5164 49.4233 57.3811C49.2055 57.2457 48.9272 57.2704 48.6973 57.3811C48.4674 57.4918 48.298 57.6886 48.1407 57.8854C47.8381 58.2914 47.6082 58.7465 47.3783 59.2017C46.9911 59.9767 47.0274 61.3298 48.1407 61.5143C49.2539 61.6989 49.4233 59.5461 49.629 58.8449L49.6411 58.8326Z" fill="#F6FCD2"/>
<path d="M40.8199 35.1767C39.259 36.1977 38.0005 37.8953 37.9763 39.7897C37.9521 42.2499 39.9245 44.2059 41.7396 45.8297C43.0464 46.9983 44.3412 48.1546 45.6481 49.3232C46.2773 49.8891 47.0154 50.4919 47.8504 50.4181C48.6006 50.3566 49.2177 49.7415 49.5203 49.0403C49.8228 48.3391 49.8591 47.5518 49.8954 46.7892C50.0043 44.4888 50.1132 42.1761 50.2221 39.8758C50.2947 38.3381 50.3552 36.7266 49.7381 35.3243C48.1166 31.6462 43.3248 33.5529 40.832 35.189L40.8199 35.1767Z" fill="#D4E683"/>
<path d="M45.7938 42.3366C45.8423 42.6195 45.8907 42.9025 46.0238 43.1485C46.1569 43.3945 46.3868 43.6037 46.6651 43.6283C46.9313 43.6529 47.1854 43.5053 47.3548 43.2838C47.5242 43.0624 47.5968 42.8041 47.6573 42.5457C47.7662 42.0168 47.7783 41.4755 47.7904 40.9343C47.8025 40.0117 47.1612 38.7323 46.0117 39.0891C44.8621 39.4458 45.6728 41.5739 45.8059 42.3366H45.7938Z" fill="#F6FCD2"/>
<path d="M45.5877 43.8124C45.7208 44.0585 45.8539 44.3168 45.9024 44.5874C45.9508 44.8581 45.9023 45.1779 45.6966 45.3624C45.503 45.5469 45.2005 45.5961 44.9464 45.5223C44.6923 45.4485 44.4624 45.3009 44.2567 45.1287C43.8453 44.7842 43.5185 44.366 43.1797 43.9478C42.611 43.2343 42.3327 41.8196 43.458 41.3768C44.5834 40.9339 45.2247 43.1113 45.5998 43.8124H45.5877Z" fill="#F6FCD2"/>
<path d="M63.4604 35.4964C61.8994 34.4631 59.8665 33.9956 58.1603 34.7583C55.9459 35.7424 55.0021 38.3626 54.2881 40.7245C53.7799 42.4098 53.2596 44.0951 52.7514 45.7803C52.4973 46.5922 52.2673 47.5271 52.6667 48.2652C53.0297 48.9418 53.8404 49.2616 54.5907 49.2493C55.3409 49.237 56.0669 48.9541 56.7688 48.6712C58.8864 47.8224 60.9919 46.9859 63.1095 46.1371C64.5252 45.5712 65.9894 44.9685 66.9938 43.8244C69.6317 40.8106 65.9531 37.1448 63.4725 35.5087L63.4604 35.4964Z" fill="#D4E683"/>
<path d="M59.0555 43.05C58.8256 43.2099 58.5957 43.3698 58.4263 43.5913C58.2569 43.8127 58.1722 44.1202 58.2569 44.3785C58.3416 44.6369 58.5836 44.8091 58.8498 44.8829C59.116 44.9567 59.3822 44.9198 59.6363 44.8583C60.1567 44.7476 60.6407 44.5262 61.1368 44.317C61.9717 43.9603 62.8551 42.8409 62.0686 41.906C61.282 40.9711 59.7089 42.6071 59.0676 43.05H59.0555Z" fill="#F6FCD2"/>
<path d="M57.6515 43.4557C57.4821 43.6771 57.3126 43.9108 57.0827 44.0584C56.8528 44.2061 56.5503 44.2922 56.2962 44.1815C56.0542 44.0831 55.8848 43.8247 55.8364 43.5541C55.788 43.2835 55.8364 43.0128 55.909 42.7545C56.0542 42.2378 56.2962 41.7458 56.5261 41.266C56.9375 40.4418 58.0871 39.6176 58.9462 40.4787C59.8054 41.3398 58.1113 42.8283 57.6394 43.4557H57.6515Z" fill="#F6FCD2"/>
</svg>
