<svg width="100" height="100" viewBox="0 0 100 100" fill="none" xmlns="http://www.w3.org/2000/svg">
<path d="M58.1365 99C57.6679 99 57.1859 98.9464 56.7307 98.8526L15.8853 90.0385C11.3067 89.0205 8 84.9215 8 80.26V36.9396C8 35.6001 8.40162 34.3141 9.12455 33.2291L21.3876 13.1763V10.9929C21.3876 5.48742 25.8724 1 31.3747 1C31.9905 1 32.593 1.05358 33.1954 1.17414L70.0514 7.99235C74.7638 8.83625 78.2178 12.9754 78.2178 17.8245V20.4902L89.2224 32.3986C90.3603 33.6309 91.0029 35.2652 91.0029 36.9396V80.6216C91.0029 84.8144 88.3522 88.5919 84.4029 90.0117L60.3989 98.6115C59.676 98.866 58.9129 99 58.1365 99Z" fill="white" stroke="#B9B9B9" stroke-miterlimit="10"/>
<path d="M58.136 92.3021L17.2906 83.488C15.7778 83.1665 14.6934 81.8135 14.6934 80.2597V36.9259L58.1494 46.3026V92.3021H58.136Z" fill="#FFFEFC"/>
<path d="M58.136 78.9067L14.6934 69.53V48.9816L58.136 58.3583V78.9067Z" fill="#F9C0B9"/>
<path d="M58.136 46.3295L14.6934 36.9528L28.0809 15.0515L71.5236 23.0887L58.136 46.3295Z" fill="#FFFEFC"/>
<path d="M58.1362 92.3021L82.1133 83.7023C83.4253 83.2334 84.2955 81.9877 84.2955 80.5946V36.9259L58.1362 46.3026V92.3021Z" fill="#F2EFED"/>
<path d="M58.1362 78.9067L84.2955 69.53V48.9816L58.1362 58.3583V78.9067Z" fill="#F4B8B3"/>
<path d="M71.5238 23.0886L58.1362 46.3027L84.2955 36.926L71.5238 23.0886Z" fill="#EAE7E5"/>
<path d="M71.5235 23.0885L28.0674 15.0513V10.9791C28.0674 8.91626 29.9416 7.36241 31.9632 7.73747L68.8191 14.5557C70.3855 14.8504 71.5101 16.2033 71.5101 17.7973V23.0885H71.5235Z" fill="#FFFEFC"/>
</svg>
