<svg width="100" height="100" viewBox="0 0 100 100" fill="none" xmlns="http://www.w3.org/2000/svg">
<path d="M49.2729 98.9867C45.1735 98.9867 41.4058 98.1505 38.036 96.5046C37.1604 96.7701 36.2583 96.9692 35.3296 97.0754C34.2948 97.2081 33.2998 97.2612 32.3446 97.2612C17.4859 97.2612 13.7845 83.1917 10.826 71.883C9.6453 67.3967 8.42476 62.7378 6.66029 58.4108C2.68027 48.6683 3.19767 37.2269 8.00022 28.5861C11.4098 22.4406 16.4644 18.525 22.2221 17.5561C23.4559 17.357 24.6765 17.2508 25.8705 17.2508C26.3215 17.2508 26.7593 17.2641 27.2104 17.2906C26.5736 15.9102 26.4144 14.2909 26.8522 12.7247C27.5421 10.2692 28.8422 8.026 30.5934 6.22085C32.3844 4.38916 34.6 3.02203 37.0145 2.29201C37.6513 2.09291 38.3147 2 38.978 2C40.2914 2 41.5915 2.38492 42.6927 3.12822C43.2499 3.49986 47.535 6.49959 51.3956 12.2336C60.1251 12.592 66.6391 15.1669 71.1763 20.078C71.5875 20.0647 71.9988 20.0515 72.4101 20.0515C73.9756 20.0515 75.5808 20.1842 77.1861 20.4629C84.2573 21.6575 90.2007 26.6747 93.5042 34.2139C97.5903 43.5582 96.6086 54.7607 90.9304 63.428C88.0913 67.7816 86.7249 72.5599 85.4115 77.1657C83.0633 85.4083 79.8394 96.717 65.3522 96.717C63.999 96.717 62.5397 96.6108 61.014 96.4117C60.9344 96.4117 60.8548 96.3852 60.7752 96.3719C57.3258 98.1107 53.4652 99 49.2597 99L49.2729 98.9867Z" fill="white" stroke="#B9B9B9" stroke-miterlimit="10"/>
<path d="M85.385 59.7778C75.5544 74.8295 81.0733 92.35 61.8896 89.8148C61.1069 89.7087 60.364 89.5494 59.6608 89.337C56.8483 91.2483 53.4255 92.35 49.273 92.35C44.9082 92.35 41.3528 91.1422 38.4474 89.0317C37.2799 89.8148 35.9665 90.3059 34.4939 90.4918C18.4544 92.4695 19.728 72.8916 12.7895 55.902C6.88586 41.4476 13.7448 25.7189 23.3233 24.0996C26.2155 23.6218 29.0678 23.9403 31.7211 25.1482C35.3164 20.8875 40.9415 18.8169 49.273 18.8169C58.8118 18.8169 64.7818 21.5379 68.2444 27.1259C70.7651 26.5684 73.4051 26.5419 76.0983 26.9931C87.5607 28.931 94.0349 46.5445 85.385 59.7778Z" fill="#FFF261"/>
<path d="M42.5731 29.1302C40.6361 30.5504 40.5035 33.3909 42.3873 34.8907C43.86 36.0588 46.0755 37.1206 49.3524 37.2533C53.2262 37.3993 55.601 35.9393 56.994 34.466C58.387 32.9927 58.1747 30.6035 56.6093 29.316C53.8896 27.0729 48.8482 24.5642 42.5731 29.1435V29.1302Z" fill="#F5E25C"/>
<path d="M49.4849 36.2446C51.756 36.2446 53.5971 34.9669 53.5971 33.3908C53.5971 31.8148 51.756 30.5371 49.4849 30.5371C47.2137 30.5371 45.3726 31.8148 45.3726 33.3908C45.3726 34.9669 47.2137 36.2446 49.4849 36.2446Z" fill="#90C671"/>
<path d="M48.1191 32.727C48.1191 32.727 47.0711 19.0822 33.2339 14.5295C34.0166 11.7156 36.1791 9.49898 38.9651 8.63623H39.0049C39.0049 8.63623 51.0245 16.7196 51.0245 32.727C51.0245 32.727 50.7459 33.6295 49.6979 33.6295C48.6498 33.6295 48.1191 32.727 48.1191 32.727Z" fill="#9AE574"/>
<path d="M67.8731 49.2388C67.8731 49.2388 71.4153 72.4136 61.1602 87.0274C61.1602 87.0274 85.1331 66.6929 67.8731 49.2388Z" fill="#F5E25C"/>
<path d="M32.0261 40.001C32.0261 40.001 28.0726 68.9762 39.2167 87.0277C39.2167 87.0277 15.4295 60.0434 32.0261 40.001Z" fill="#F5E25C"/>
<path d="M48.4388 55.8296L47.9552 59.1207L46.8268 66.791C46.7193 67.503 46.2895 68 45.779 68H32.6818C32.5474 68 32.4131 67.9731 32.2922 67.8925C31.9564 67.7179 31.7146 67.3015 31.634 66.7776L30.022 55.8296C29.8877 54.8624 30.3847 53.9624 31.0698 53.9624H47.4044C48.0761 53.9624 48.5866 54.8624 48.4388 55.8296Z" fill="#333333"/>
<path d="M65.4589 68H52.3482C51.8512 68 51.4079 67.4895 51.3139 66.7776L49.7019 55.8296C49.5541 54.8759 50.0646 53.9624 50.7363 53.9624H67.0709C67.7426 53.9624 68.253 54.8624 68.1053 55.8296L66.4933 66.7776C66.3858 67.4895 65.956 68 65.4589 68Z" fill="#333333"/>
<path d="M45.0938 60.5178C47.3908 57.8178 50.87 57.8178 53.167 60.5178" stroke="#333333" stroke-width="2" stroke-miterlimit="10"/>
<path d="M53.624 49.5294C53.624 49.5294 56.9554 44.4114 62.0063 45.0562" stroke="#8E7900" stroke-miterlimit="10" stroke-linecap="round"/>
</svg>
