<svg width="100" height="100" viewBox="0 0 100 100" fill="none" xmlns="http://www.w3.org/2000/svg">
<path d="M50.494 98.976C44.4652 98.976 28.2327 91.988 16.5339 81.0377C9.58392 74.566 5.06228 67.542 3.10051 60.1818C3.06462 60.0377 3.02873 59.9057 3.00481 59.7616C2.3469 56.94 2.01196 54.0583 2 51.1887C2.01196 49.6998 2.08373 48.223 2.22728 46.7221C2.26316 46.1698 2.33494 45.6055 2.43063 45.0532C5.09816 26.9348 20.3019 13.271 37.8262 13.271C39.9794 13.271 42.1086 13.4631 44.19 13.8593C46.092 11.422 48.2212 9.34477 50.5419 7.63979C58.4368 1.86449 67.9705 1 72.9587 1C74.8846 1 76.1286 1.13208 76.2722 1.14408C77.9469 1.32419 79.478 2.21269 80.4708 3.58148C81.4637 4.95026 81.8345 6.67924 81.4876 8.33619C81.4398 8.56432 80.6503 12.2624 78.4971 16.8851C89.0356 22.1561 96.7511 32.7101 98.5813 45.0532C98.677 45.6055 98.7488 46.1698 98.7847 46.7341C98.9163 48.211 98.988 49.6878 99 51.1166C98.988 54.0823 98.6411 56.976 97.9832 59.8216C97.9593 59.9417 97.9354 60.0737 97.8995 60.1938C95.9377 67.554 91.4161 74.578 84.4542 81.0617C72.7673 92.012 56.5229 99 50.494 99V98.976Z" fill="white" stroke="#B9B9B9" stroke-miterlimit="10"/>
<path d="M63.8913 26.0583C54.6925 32.7702 42.3237 31.4254 42.3237 31.4254C42.3237 31.4254 44.8597 19.1904 54.0585 12.4786C63.2573 5.76675 75.626 7.11152 75.626 7.11152C75.626 7.11152 73.09 19.3465 63.8913 26.0583Z" fill="#9AE574"/>
<path d="M63.8913 26.0583C54.6925 32.7702 42.3237 31.4254 42.3237 31.4254C42.3237 31.4254 44.8597 19.1904 54.0585 12.4786C63.2573 5.76675 75.626 7.11152 75.626 7.11152C75.626 7.11152 73.09 19.3465 63.8913 26.0583Z" fill="#9AE574"/>
<path d="M42.3237 31.4374C42.3237 31.4374 59.7524 10.8457 75.626 7.12354C75.626 7.12354 57.372 18.1458 42.3237 31.4374Z" fill="#90C671"/>
<path d="M93.0189 51.1526C93.007 53.7101 92.696 56.1715 92.1338 58.5488C92.1338 58.5609 92.1338 58.5849 92.1218 58.6089C90.2796 65.5128 85.7939 71.5883 80.3871 76.6312C69.382 86.9331 54.5611 92.9605 50.494 92.9605C46.4269 92.9605 31.6179 86.9211 20.6128 76.6312C15.206 71.5883 10.7203 65.5128 8.87811 58.6089C8.87811 58.5849 8.86615 58.5609 8.86615 58.5488C8.30393 56.1715 7.99292 53.6981 7.98096 51.1526C7.98096 49.8199 8.06469 48.4991 8.18431 47.1904C8.20824 46.7941 8.25608 46.4099 8.32786 46.0137C10.5289 30.873 22.8976 19.2744 37.8262 19.2744C42.3598 19.2744 46.6542 20.331 50.5059 22.2521C54.3577 20.343 58.6521 19.2744 63.1737 19.2744C78.1023 19.2744 90.471 30.873 92.6721 46.0137C92.7438 46.4099 92.7917 46.7941 92.8156 47.1904C92.9352 48.4991 93.007 49.8199 93.0189 51.1526Z" fill="#FFBFB8"/>
<path d="M31.5944 53.074C31.5944 65.297 36.116 74.6984 40.6377 81.05C32.0131 70.9523 20.9602 55.0312 25.0392 43.4445C31.4748 25.1941 50.5064 22.2524 50.5064 22.2524C50.5064 22.2524 31.5944 28.544 31.5944 53.074Z" fill="#FBAAA3"/>
<path d="M56.1901 49C60.5249 49 64.0352 52.6634 64.0352 57.175C64.0352 61.6865 60.5249 65.35 56.1901 65.35C53.681 65.35 51.4547 64.1249 50.0176 62.2166C48.5805 64.1249 46.3424 65.35 43.8452 65.35C39.5103 65.35 36 61.6865 36 57.175C36 52.6634 39.5103 49 43.8452 49C46.3542 49 48.5805 50.2251 50.0176 52.1334C51.4547 50.2251 53.6928 49 56.1901 49Z" fill="white"/>
<path d="M50.1943 57.175C50.1943 59.955 48.2506 62.2048 45.8476 62.2048C43.4446 62.2048 41.501 59.955 41.501 57.175C41.501 54.395 43.4446 52.1451 45.8476 52.1451C48.2506 52.1451 50.1943 54.395 50.1943 57.175Z" fill="black"/>
<path d="M62.4213 57.175C62.4213 59.955 60.4777 62.2048 58.0747 62.2048C55.6716 62.2048 53.728 59.955 53.728 57.175C53.728 54.395 55.6716 52.1451 58.0747 52.1451C60.4777 52.1451 62.4213 54.395 62.4213 57.175Z" fill="black"/>
<path d="M37.0002 45.5471C37.0002 45.5471 42.7918 43.6107 46.3463 47.2567" stroke="#A16159" stroke-miterlimit="10" stroke-linecap="round"/>
</svg>
