<svg width="100" height="100" viewBox="0 0 100 100" fill="none" xmlns="http://www.w3.org/2000/svg">
<path d="M49.9319 94C43.0617 94 36.1119 93.5893 29.2758 92.7678C25.5284 92.3342 22.0195 90.5658 19.3963 87.8161C16.7845 85.0893 15.1833 81.4954 14.8994 77.7075L13.162 52.8923L5.9511 49.2755C2.90776 47.7581 1 44.6776 1 41.2434C1 39.8856 1.31796 38.5165 1.91981 37.2843C3.4642 34.1696 6.53024 32.2642 9.94832 32.2642C10.7092 32.2642 11.47 32.3669 12.1968 32.5495C12.3671 32.3441 12.5488 32.1387 12.7418 31.9562C15.6489 22.8287 28.4922 18.516 39.4278 16.4852C39.4505 10.7006 44.1404 6 49.9092 6C55.6779 6 60.3564 10.6892 60.3905 16.4623C78.6392 19.771 85.2936 26.1146 87.1219 32.036C87.3036 32.2072 87.4626 32.4011 87.6216 32.5951C88.4165 32.3669 89.2341 32.2528 90.063 32.2528C93.4698 32.2528 96.5358 34.1582 98.0575 37.2159C98.6707 38.4024 99 39.8172 99 41.2319C99 44.6661 97.1036 47.7581 94.0376 49.2755L86.679 52.9721L84.9416 77.6619C84.3511 85.5001 78.3099 91.8322 70.5652 92.7564C63.7405 93.5779 56.8021 93.9886 49.9205 93.9886L49.9319 94Z" fill="white" stroke="#B9B9B9" stroke-miterlimit="10"/>
<path d="M82.034 35.9495C82.034 36.4971 82.0112 37.0904 81.9545 37.7293L50.4309 39.6803L17.9081 37.6723C17.8513 37.0562 17.8286 36.4857 17.8286 35.9495C17.8286 23.2395 49.9313 20.8093 49.9313 20.8093C49.9313 20.8093 82.034 23.2395 82.034 35.9495Z" fill="#FFF261"/>
<path d="M77.83 43.7212L88.6237 38.3167C90.2295 37.5126 92.194 38.1734 92.9943 39.7868C93.7946 41.4003 93.1369 43.374 91.5311 44.1781L80.7374 49.5826C80.1886 49.8574 79.5185 49.6321 79.245 49.0806L77.3354 45.2309C77.0619 44.6795 77.2862 44.0063 77.8351 43.7315L77.83 43.7212Z" fill="#F5E25C"/>
<path d="M19.294 49.5814L8.50035 44.1768C6.89452 43.3727 6.23682 41.399 7.03712 39.7856C7.83741 38.1722 9.8019 37.5114 11.4077 38.3154L22.2014 43.72C22.7502 43.9948 22.9746 44.668 22.701 45.2194L20.7915 49.0691C20.518 49.6206 19.8479 49.8459 19.2991 49.5711L19.294 49.5814Z" fill="#F5E25C"/>
<path d="M69.9064 87.1089C56.6315 88.6948 43.2204 88.6948 29.9569 87.1089C24.8922 86.5042 20.9632 82.3854 20.5884 77.2741L17.8403 38.1401H82.0457L79.2976 77.2741C78.9115 82.3854 74.9824 86.5042 69.9291 87.1089H69.9064Z" fill="#FFF261"/>
<path d="M49.9207 21.3681C52.5736 21.3681 54.7241 19.2074 54.7241 16.542C54.7241 13.8766 52.5736 11.7158 49.9207 11.7158C47.2678 11.7158 45.1172 13.8766 45.1172 16.542C45.1172 19.2074 47.2678 21.3681 49.9207 21.3681Z" fill="#686552"/>
<path d="M26.2339 50.8676C26.1895 50.2012 25.6158 49.6971 24.9525 49.7417C24.2892 49.7863 23.7875 50.3628 23.8319 51.0292L25.1479 70.7801C25.1923 71.4466 25.766 71.9507 26.4293 71.906C27.0926 71.8614 27.5943 71.285 27.5499 70.6186L26.2339 50.8676Z" fill="white"/>
<path d="M52.9182 23.582H52.8728C50.9537 24.3236 48.8301 24.3122 46.9224 23.582L48.0579 15.5841H51.7826L52.9182 23.582Z" fill="#686552"/>
<path d="M83.1589 39.0294C61.0379 40.5469 38.8261 40.5469 16.7051 39.0294H16.6597V36.1086H16.6824C38.8034 37.6261 61.0152 37.6261 83.1362 36.1086H83.1589V39.0294Z" fill="#F5E25C"/>
</svg>
