<svg width="100" height="100" viewBox="0 0 100 100" fill="none" xmlns="http://www.w3.org/2000/svg">
<path d="M48.7334 98.9882C37.4157 98.9882 25.9918 98.2683 14.7567 96.8639C9.77649 96.2502 6 91.9899 6 86.9624C6 86.2897 6.05901 85.6643 6.18882 85.027L14.6387 38.1749L15.0046 36.1096C15.099 35.5195 15.2524 34.9412 15.4648 34.3984C15.6655 33.8437 15.9133 33.3244 16.2319 32.817C16.6804 32.0617 17.2115 31.389 17.8369 30.7989C17.955 29.4417 18.368 28.1081 19.0997 26.869C22.1327 21.7471 27.5378 20.2719 32.2938 18.9619C33.0845 18.7495 33.8516 18.5371 34.6069 18.3129C34.9374 16.106 35.7753 13.9935 37.0735 12.1407C36.3536 9.19027 36.7312 6.45231 37.5101 4.61127C38.4542 2.36898 40.6375 1 42.9506 1C43.5525 1 44.1544 1.09441 44.7563 1.28324L45.6414 1.56647C47.6358 2.20376 49.0638 3.80877 49.5595 5.70881C56.3926 5.81503 62.3288 10.5592 63.7449 17.0855C63.8629 17.6638 63.9574 18.2421 64.0046 18.8321C64.2524 18.9029 64.512 18.9737 64.7717 19.0446C69.2091 20.2955 74.2483 21.7235 77.4701 25.795C78.6031 27.2348 79.2522 28.887 79.4292 30.5865C80.9752 31.979 82.0845 33.8791 82.4858 36.0624L91.3251 85.1214C91.8444 87.7295 91.2189 90.5619 89.6021 92.8042C87.9853 95.0465 85.4834 96.5335 82.7454 96.8757C71.5104 98.2919 60.0865 99 48.7688 99L48.7334 98.9882Z" fill="white" stroke="#B9B9B9" stroke-miterlimit="10"/>
<path d="M81.9781 91.0106C59.9092 93.7839 37.5689 93.7839 15.5 91.0106C13.1515 90.7155 11.5347 88.4851 11.9949 86.1601L20.8343 37.1129C21.1647 35.3073 22.7343 33.9855 24.5636 33.9855H72.9027C74.7437 33.9855 76.3133 35.2955 76.632 37.1129L85.4713 86.1601C85.9316 88.4851 84.3266 90.7155 81.9663 91.0106H81.9781Z" fill="#FFF48F"/>
<path d="M77.0218 39.2254L76.8094 39.249C58.0921 41.5857 39.1625 41.5739 20.457 39.2254L20.8347 37.1011C21.1533 35.2955 22.7229 33.9855 24.564 33.9855H72.9031C74.7441 33.9855 76.3137 35.3073 76.6442 37.1129L77.0218 39.2254Z" fill="#E59C59"/>
<path d="M24.1859 29.8551C28.3991 22.7624 43.0094 26.6215 48.7331 14.6075C52.9227 26.0078 67.828 23.1283 72.8083 29.4303C74.5313 31.6136 73.0325 34.859 70.2709 35.1304C55.9557 36.5584 41.5224 36.5584 27.2071 35.1304L27.0065 35.1068C24.4691 34.8472 22.8877 32.0384 24.1977 29.8433L24.1859 29.8551Z" fill="#FAF7F4"/>
<path d="M45.9361 20.8742C43.7646 26.3265 40.1887 28.8048 35.1141 31.7788C33.7923 32.5577 31.8214 33.8441 33.2258 35.6615C32.2699 35.5907 31.3022 35.5081 30.3462 35.4255C29.4493 33.7615 29.4139 31.3186 34.9016 29.5483C42.5726 27.0936 45.2752 22.314 45.9361 20.8742Z" fill="#FAF7F4"/>
<path d="M44.8856 33.4424C44.4608 34.5518 45.3459 35.5785 46.0776 36.204C45.2751 36.204 44.4726 36.1686 43.6701 36.1568H43.6583C42.7495 35.5313 42.2067 34.4101 43.434 32.4865C45.6055 29.0522 47.7534 22.8918 48.013 22.1365C47.6826 23.3049 45.5465 31.7076 44.8856 33.4424Z" fill="#FAF7F4"/>
<path d="M55.2241 32.2745C56.5813 34.4106 55.7552 35.5553 54.6812 36.1336H54.6694C53.8905 36.1572 53.1116 36.169 52.3327 36.1808C53.1116 35.5789 54.2446 34.4578 53.7725 33.2304C53.0998 31.4956 50.9755 23.0929 50.6333 21.9246C50.8929 22.6799 53.0408 28.8403 55.2241 32.2745Z" fill="#FAF7F4"/>
<path d="M67.4026 35.402H67.3908C66.3995 35.4964 65.3964 35.5672 64.3932 35.6498C66.4585 33.62 64.287 32.192 62.8708 31.3659C57.7962 28.3801 54.2321 25.9018 52.0488 20.4612C52.7097 21.8892 55.4123 26.6689 63.0833 29.1354C69.0431 31.0472 68.4884 33.7616 67.4026 35.402Z" fill="#FAF7F4"/>
<path d="M45.9361 20.8742C43.7646 26.3265 40.1887 28.8048 35.1141 31.7788C33.7923 32.5577 31.8214 33.8441 33.2258 35.6615C32.2699 35.5907 31.3022 35.5081 30.3462 35.4255C29.4493 33.7615 29.4139 31.3186 34.9016 29.5483C42.5726 27.0936 45.2752 22.314 45.9361 20.8742Z" fill="#EAE7E5"/>
<path d="M67.4026 35.402H67.3908C66.3995 35.4964 65.3964 35.5672 64.3932 35.6498C66.4585 33.62 64.287 32.192 62.8708 31.3659C57.7962 28.3801 54.2321 25.9018 52.0488 20.4612C52.7097 21.8892 55.4123 26.6689 63.0833 29.1354C69.0431 31.0472 68.4884 33.7616 67.4026 35.402Z" fill="#EAE7E5"/>
<path d="M46.0776 36.204C45.2751 36.204 44.4726 36.1686 43.6701 36.1568H43.6583C42.7495 35.5313 42.2067 34.4101 43.434 32.4865C45.6055 29.0522 47.7534 22.8918 48.013 22.1365C47.6826 23.3049 45.5465 31.7076 44.8856 33.4424C44.4608 34.5518 45.3459 35.5785 46.0776 36.204Z" fill="#EAE7E5"/>
<path d="M54.6812 36.1336H54.6694C53.8905 36.1572 53.1116 36.169 52.3327 36.1808C53.1116 35.5789 54.2446 34.4578 53.7725 33.2304C53.0998 31.4956 50.9755 23.0929 50.6333 21.9246C50.8929 22.6799 53.0408 28.8403 55.2241 32.2745C56.5813 34.4106 55.7552 35.5553 54.6812 36.1336Z" fill="#EAE7E5"/>
<path d="M52.1434 28.6513C51.1875 27.6245 49.1576 26.5034 46.6793 25.7363C44.8619 25.1816 43.1388 24.922 41.8171 24.9456C41.2152 24.0959 40.7785 23.14 40.5425 22.0896C39.5394 17.4398 42.7966 12.8018 47.4346 11.7987C52.0844 10.7837 56.9584 13.6633 57.9616 18.3131C58.8821 22.5735 56.0025 27.3295 52.1552 28.6513H52.1434Z" fill="#E95E3F"/>
<path d="M42.9391 6.88904C42.9391 6.88904 40.567 12.5302 48.1436 17.0148L48.3324 16.7787C48.3324 16.7787 42.0776 13.7693 43.8242 7.17227L42.9509 6.88904H42.9391Z" fill="#E95E3F"/>
<path d="M26.5884 46.7292C26.6866 46.1112 26.2679 45.5311 25.6531 45.4334C25.0384 45.3357 24.4604 45.7574 24.3622 46.3754L20.9707 67.7162C20.8725 68.3341 21.2912 68.9143 21.906 69.012C22.5207 69.1097 23.0987 68.6879 23.1969 68.07L26.5884 46.7292Z" fill="white"/>
</svg>
