<svg width="100" height="100" viewBox="0 0 100 100" fill="none" xmlns="http://www.w3.org/2000/svg">
<path d="M25.7871 98.9882C17.5788 98.9882 13.0133 95.4642 10.636 92.5177C2.87714 82.8886 6.55551 66.2941 9.50056 52.9642C10.0801 50.3713 10.6242 47.908 10.9672 45.9398C16.1595 18.1132 31.9019 2.17859 54.1613 2.17859C55.4387 2.17859 56.7516 2.22574 58.0763 2.33181C58.0763 2.33181 58.3246 2.35538 58.3719 2.35538C58.5139 2.35538 58.644 2.37895 58.7859 2.40253C62.6535 2.74432 66.391 3.68719 69.9629 5.20758L72.9908 2.5086C74.1026 1.50679 75.5219 1 76.9412 1C78.1121 1 79.2949 1.35358 80.312 2.06073C82.5593 3.61648 83.4463 6.5276 82.4292 9.06158L81.0926 12.4324C81.483 12.7859 81.8614 13.1513 82.2399 13.5284L87.3731 14.2474C90.1999 14.6363 92.3406 16.9935 92.4589 19.8457C92.5417 21.8022 91.6428 23.6054 90.1762 24.7486C93.5234 31.7731 94.7416 39.6225 93.5589 47.2008C90.6493 68.6395 69.7855 82.3229 57.5913 88.5695C45.6455 94.9456 35.6986 98.4461 28.1171 98.9175C27.372 98.9764 26.5559 99 25.7871 99V98.9882Z" fill="white" stroke="#B9B9B9" stroke-miterlimit="10"/>
<path d="M57.6031 8.21264C33.3211 6.3269 21.0086 24.3712 16.798 46.953C14.2196 61.6736 2.75875 94.8982 27.7503 93.0242C35.8522 92.5174 46.4142 87.8384 54.8945 83.3126C69.5016 75.8285 85.4569 63.1586 87.716 46.3401C90.6728 27.6359 76.3379 9.66231 57.8633 8.23622L57.6031 8.21264Z" fill="#E95E3F"/>
<path d="M83.647 26.08L78.4311 24.1707C75.486 23.4164 72.3636 23.8406 69.726 25.3375L69.6787 27.5532C69.6196 30.1933 69.3594 32.8333 68.9217 35.438L68.3659 38.6673L68.2239 34.6012C68.0938 31.0419 67.2304 26.6928 65.066 23.8642L62.2983 22.3556C59.9683 21.071 51.3105 21.9195 51.3105 21.9195L53.1911 21.2242C56.5975 19.9749 60.2522 19.5388 63.8596 19.9749C63.3983 18.2541 62.6768 16.6159 61.7069 15.1191C60.7607 13.634 59.5662 12.2904 58.1823 11.159L56.3491 9.65039L66.7455 16.7102L73.2506 13.7283C74.6226 14.6594 75.9237 15.6966 77.1419 16.8162C74.8 16.6041 72.5055 17.7709 71.3227 19.857L75.9473 21.4599C77.272 21.9195 78.5494 22.4971 79.7676 23.1924L83.647 26.08Z" fill="#E95E3F"/>
<path d="M45.1839 19.1855C44.3796 20.423 43.6345 20.3877 42.9485 19.9516C42.2625 19.5155 41.9313 18.8437 42.7237 17.6062C43.5162 16.3687 45.5742 15.2962 45.8462 15.4612C46.1183 15.6262 45.9763 17.9362 45.1839 19.1737V19.1855Z" fill="#D84B35"/>
<path d="M37.0945 23.9355C36.2903 25.173 35.5451 25.1377 34.8591 24.7016C34.1731 24.2655 33.8419 23.5937 34.6344 22.3562C35.4268 21.1187 37.4848 20.0462 37.7569 20.2112C38.0289 20.3762 37.887 22.6862 37.0945 23.9237V23.9355Z" fill="#D84B35"/>
<path d="M45.1839 26.3281C44.3796 27.5656 43.6345 27.5303 42.9485 27.0942C42.2625 26.6581 41.9313 25.9863 42.7237 24.7488C43.5162 23.5113 45.5742 22.4387 45.8462 22.6037C46.1183 22.7687 45.9763 25.0788 45.1839 26.3163V26.3281Z" fill="#D84B35"/>
<path d="M38.2644 33.0342C37.4602 34.2717 36.715 34.2363 36.029 33.8002C35.343 33.3642 35.0119 32.6924 35.8043 31.4548C36.5968 30.2173 38.6548 29.1448 38.9268 29.3098C39.1988 29.4748 39.0569 31.7848 38.2644 33.0224V33.0342Z" fill="#D84B35"/>
<path d="M30.3288 32.7514C29.9148 34.1658 29.1815 34.3425 28.4009 34.1186C27.6203 33.8947 27.1117 33.3407 27.5256 31.9382C27.9396 30.5357 29.6073 28.921 29.9148 29.0035C30.2223 29.086 30.7427 31.3371 30.3288 32.7514Z" fill="#D84B35"/>
<path d="M40.7962 40.7656C39.9919 42.0031 39.2468 41.9678 38.5608 41.5317C37.8748 41.0956 37.5436 40.4238 38.3361 39.1863C39.1285 37.9488 41.1865 36.8762 41.4585 37.0412C41.7306 37.2062 41.5886 39.5163 40.7962 40.7538V40.7656Z" fill="#D84B35"/>
<path d="M31.5472 43.1469C30.7429 44.3845 29.9977 44.3491 29.3118 43.913C28.6258 43.477 28.2946 42.8052 29.087 41.5676C29.8795 40.3301 31.9375 39.2576 32.2095 39.4226C32.4815 39.5876 32.3396 41.8976 31.5472 43.1352V43.1469Z" fill="#D84B35"/>
<path d="M83.647 26.08L78.4311 24.1707C75.486 23.4164 72.3636 23.8406 69.726 25.3375L69.6787 27.5532C69.6196 30.1933 69.3594 32.8333 68.9217 35.438L68.3659 38.6673L68.2239 34.6012C68.0938 31.0419 67.2304 26.6928 65.066 23.8642L62.2983 22.3556C59.9683 21.071 51.3105 21.9195 51.3105 21.9195L53.1911 21.2242C56.5975 19.9749 60.2522 19.5388 63.8596 19.9749C63.3983 18.2541 62.6768 16.6159 61.7069 15.1191C60.7607 13.634 59.5662 12.2904 58.1823 11.159L56.3491 9.65039L66.7455 16.7102L73.2506 13.7283C74.6226 14.6594 75.9237 15.6966 77.1419 16.8162C74.8 16.6041 72.5055 17.7709 71.3227 19.857L75.9473 21.4599C77.272 21.9195 78.5494 22.4971 79.7676 23.1924L83.647 26.08Z" fill="#D84B35"/>
<path d="M70.7906 33.5646L65.8467 23.0398L52.9429 17.7479L65.0306 18.2193L57.5201 7.89487L67.9165 14.9546L76.9291 6.89307L72.482 18.1133L86.5567 20.0815L70.8852 23.5819L70.7906 33.5646Z" fill="#9AE574"/>
<path d="M70.9738 20.792C71.5664 19.9263 71.0757 18.5643 69.8778 17.75C68.6798 16.9357 67.2282 16.9774 66.6356 17.8431C66.0429 18.7088 66.5336 20.0708 67.7316 20.8851C68.9296 21.6994 70.3811 21.6577 70.9738 20.792Z" fill="#90C671"/>
<path d="M47.4955 54.6675C51.7096 55.5454 54.3786 59.8298 53.4655 64.2195C52.5525 68.6092 48.3852 71.4655 44.171 70.5758C41.7362 70.0607 39.8047 68.4219 38.798 66.268C37.007 67.8249 34.5956 68.5624 32.149 68.059C27.9349 67.1928 25.266 62.9084 26.179 58.5187C27.0921 54.129 31.2711 51.2727 35.4852 52.1624C37.9201 52.6774 39.8515 54.3163 40.8582 56.4702C42.6493 54.9133 45.0607 54.1758 47.5072 54.6792L47.4955 54.6675Z" fill="white"/>
<path d="M40.0035 62.6508C39.4416 65.3549 37.0887 67.1576 34.7592 66.666C32.4298 66.1743 30.9899 63.5873 31.5635 60.8832C32.1371 58.1792 34.4783 56.3765 36.8078 56.8681C39.1372 57.3598 40.5771 59.9468 40.0035 62.6508Z" fill="black"/>
<path d="M51.8966 65.1442C51.3347 67.8483 48.9818 69.651 46.6523 69.1594C44.3228 68.6677 42.883 66.0807 43.4566 63.3767C44.0302 60.6726 46.3714 58.8699 48.7008 59.3615C51.0303 59.8532 52.4701 62.4402 51.8966 65.1442Z" fill="black"/>
<path d="M42.2944 73.3981C42.9033 70.3018 46.4401 68.3714 50.1972 69.1099C53.9542 69.8483 56.5194 72.9576 55.9105 76.0539" fill="#E95E3F"/>
<path d="M42.2944 73.3981C42.9033 70.3018 46.4401 68.3714 50.1972 69.1099C53.9542 69.8483 56.5194 72.9576 55.9105 76.0539" stroke="#D84B35" stroke-miterlimit="10" stroke-linecap="round"/>
<path d="M47.813 73.3852C48.042 73.3852 48.2276 73.1996 48.2276 72.9706C48.2276 72.7416 48.042 72.556 47.813 72.556C47.584 72.556 47.3984 72.7416 47.3984 72.9706C47.3984 73.1996 47.584 73.3852 47.813 73.3852Z" fill="#FFF6F0"/>
<path d="M47.813 72.556C47.5798 72.556 47.3984 72.7374 47.3984 72.9706C47.3984 73.2038 47.5798 73.3852 47.813 73.3852C48.0462 73.3852 48.2276 73.2038 48.2276 72.9706C48.2276 72.7374 48.0462 72.556 47.813 72.556Z" fill="#F9D8B7"/>
<path d="M49.5625 72.5043C49.7915 72.5043 49.9771 72.3186 49.9771 72.0897C49.9771 71.8607 49.7915 71.6751 49.5625 71.6751C49.3336 71.6751 49.1479 71.8607 49.1479 72.0897C49.1479 72.3186 49.3336 72.5043 49.5625 72.5043Z" fill="#FFF6F0"/>
<path d="M49.5625 71.688C49.3293 71.688 49.1479 71.8694 49.1479 72.1026C49.1479 72.3358 49.3293 72.5172 49.5625 72.5172C49.7957 72.5172 49.9771 72.3358 49.9771 72.1026C49.9771 71.8694 49.7957 71.688 49.5625 71.688Z" fill="#F9D8B7"/>
<path d="M50.6631 74.0459C50.8921 74.0459 51.0777 73.8603 51.0777 73.6314C51.0777 73.4024 50.8921 73.2168 50.6631 73.2168C50.4341 73.2168 50.2485 73.4024 50.2485 73.6314C50.2485 73.8603 50.4341 74.0459 50.6631 74.0459Z" fill="#FFF6F0"/>
<path d="M50.6631 73.2168C50.4299 73.2168 50.2485 73.3982 50.2485 73.6314C50.2485 73.8646 50.4299 74.0459 50.6631 74.0459C50.8963 74.0459 51.0777 73.8646 51.0777 73.6314C51.0777 73.3982 50.8963 73.2168 50.6631 73.2168Z" fill="#F9D8B7"/>
<path d="M22.4146 67.7101C22.6435 67.7101 22.8291 67.5245 22.8291 67.2956C22.8291 67.0666 22.6435 66.881 22.4146 66.881C22.1856 66.881 22 67.0666 22 67.2956C22 67.5245 22.1856 67.7101 22.4146 67.7101Z" fill="#FFF6F0"/>
<path d="M22.4146 66.881C22.1814 66.881 22 67.0624 22 67.2956C22 67.5287 22.1814 67.7101 22.4146 67.7101C22.6478 67.7101 22.8291 67.5287 22.8291 67.2956C22.8291 67.0624 22.6478 66.881 22.4146 66.881Z" fill="#F9D8B7"/>
<path d="M24.1636 66.8291C24.3926 66.8291 24.5782 66.6435 24.5782 66.4146C24.5782 66.1856 24.3926 66 24.1636 66C23.9346 66 23.749 66.1856 23.749 66.4146C23.749 66.6435 23.9346 66.8291 24.1636 66.8291Z" fill="#FFF6F0"/>
<path d="M24.1636 66C23.9304 66 23.749 66.1814 23.749 66.4146C23.749 66.6478 23.9304 66.8291 24.1636 66.8291C24.3968 66.8291 24.5782 66.6478 24.5782 66.4146C24.5782 66.1814 24.3968 66 24.1636 66Z" fill="#F9D8B7"/>
<path d="M25.2647 68.3708C25.4936 68.3708 25.6792 68.1852 25.6792 67.9563C25.6792 67.7273 25.4936 67.5417 25.2647 67.5417C25.0357 67.5417 24.8501 67.7273 24.8501 67.9563C24.8501 68.1852 25.0357 68.3708 25.2647 68.3708Z" fill="#FFF6F0"/>
<path d="M25.2647 67.5417C25.0315 67.5417 24.8501 67.7231 24.8501 67.9563C24.8501 68.1895 25.0315 68.3708 25.2647 68.3708C25.4979 68.3708 25.6792 68.1895 25.6792 67.9563C25.6792 67.7231 25.4979 67.5417 25.2647 67.5417Z" fill="#F9D8B7"/>
</svg>
