<svg width="100" height="100" viewBox="0 0 100 100" fill="none" xmlns="http://www.w3.org/2000/svg">
<path d="M51.921 97.1718C31.4365 97.1718 7.17068 82.9892 2.02303 59.2535C-0.639142 47.0028 1.92879 34.3045 9.26743 23.5027C16.3587 13.066 27.3961 5.56247 39.5408 2.92386C42.8862 2.19353 46.3258 1.82837 49.7654 1.82837C72.5234 1.82837 92.4072 17.3184 97.0366 38.6511C99.6988 50.9607 96.7774 64.625 89.0265 76.1453C81.6408 87.112 70.9096 94.5449 59.5777 96.5121C57.0923 96.9479 54.5125 97.16 51.8975 97.16L51.921 97.1718Z" fill="white" stroke="#B9B9B9" stroke-miterlimit="10"/>
<path d="M91.2888 39.9116C96.1066 62.1631 79.3326 87.1121 58.577 90.7284C37.8215 94.3447 12.5898 80.2682 7.76023 58.0167C2.95419 35.7652 18.5503 13.5019 40.8018 8.68409C63.0533 3.86627 86.4709 17.6601 91.2888 39.9116Z" fill="#E95E3F"/>
<path d="M56.9981 24.0211L62.7465 40.9011C58.0465 30.2878 50.6136 27.6256 50.6136 27.6256C47.7865 29.1569 45.2657 31.1123 43.1101 33.4329C40.9544 35.7299 39.1757 38.4038 37.8682 41.3252L36.8905 43.4573C37.6326 34.658 46.267 23.9857 46.267 23.9857C46.267 23.9857 42.5564 20.6521 36.702 19.0619C32.1433 17.825 25.7353 18.0606 22.2485 19.1443V19.1326C24.1333 17.507 26.4892 16.5293 28.9629 16.2466C37.5148 15.2335 50.6018 16.3173 50.6018 16.3173C50.6018 16.3173 52.8281 10.616 56.1971 8.20117C57.0099 8.31897 57.8227 8.4721 58.6237 8.63701C58.4588 8.84905 58.3174 9.07286 58.1878 9.29667C57.9051 9.76785 57.6695 10.2508 57.4457 10.7573C57.2219 11.2638 57.0217 11.7939 56.8332 12.324C56.6565 12.8305 56.5034 13.337 56.3502 13.8553C56.2206 14.3147 56.1029 14.7741 55.9968 15.2335C55.9144 15.5987 55.8319 15.9639 55.7612 16.3173C55.7141 16.5411 55.667 16.7531 55.6317 16.9769L55.6081 17.0947L56.3149 17.0594C61.4743 16.8002 66.6337 17.4716 71.5576 19.0148L76.7641 20.6639C63.5946 18.9205 56.9863 24.0211 56.9863 24.0211H56.9981Z" fill="#D84B35"/>
<path d="M47.9991 4.16064L53.7475 15.9402L72.8775 13.8787L55.7854 21.3352L66.7875 37.6145L50.0252 25.3991L34.7001 37.9561L44.854 22.1126L28.6689 11.193L48.4232 16.2818L47.9991 4.16064Z" fill="#9AE574"/>
<path d="M50.6136 21.4766C52.0578 21.4766 53.2286 20.6275 53.2286 19.5801C53.2286 18.5327 52.0578 17.6836 50.6136 17.6836C49.1693 17.6836 47.9985 18.5327 47.9985 19.5801C47.9985 20.6275 49.1693 21.4766 50.6136 21.4766Z" fill="#90C671"/>
<path d="M57.0338 45.6953C61.3687 45.6953 64.879 49.3587 64.879 53.8703C64.879 58.3818 61.3687 62.0453 57.0338 62.0453C54.5248 62.0453 52.2985 60.8202 50.8614 58.9119C49.4243 60.8202 47.1862 62.0453 44.6889 62.0453C40.354 62.0453 36.8438 58.3818 36.8438 53.8703C36.8438 49.3587 40.354 45.6953 44.6889 45.6953C47.1979 45.6953 49.4243 46.9204 50.8614 48.8287C52.2985 46.9204 54.5366 45.6953 57.0338 45.6953Z" fill="white"/>
<path d="M51.038 53.8703C51.038 56.6503 49.0944 58.9002 46.6914 58.9002C44.2883 58.9002 42.3447 56.6503 42.3447 53.8703C42.3447 51.0903 44.2883 48.8405 46.6914 48.8405C49.0944 48.8405 51.038 51.0903 51.038 53.8703Z" fill="black"/>
<path d="M63.2651 53.8703C63.2651 56.6503 61.3214 58.9002 58.9184 58.9002C56.5154 58.9002 54.5718 56.6503 54.5718 53.8703C54.5718 51.0903 56.5154 48.8405 58.9184 48.8405C61.3214 48.8405 63.2651 51.0903 63.2651 53.8703Z" fill="black"/>
<path d="M45 64L45.2291 64.1279C49.015 66.242 53.593 66.3808 57.5 64.5V64.5" stroke="black" stroke-linecap="round"/>
</svg>
